# Blender v2.77 (sub 0) OBJ File: 'battleship_turret_cannon.blend'
# www.blender.org
mtllib battleship_turret_cannon.mtl
o Cube.001_Cube.002
v 0.136422 0.020345 0.004242
v 0.136422 0.005345 0.019242
v 0.000000 0.015000 0.030000
v 0.000000 0.030000 0.015000
v 0.100000 0.007414 0.021725
v 0.100000 0.022414 0.006725
v 0.070000 0.025173 0.010173
v 0.070000 0.010173 0.025173
v 0.419077 0.020345 0.004242
v 0.419077 0.005345 0.019242
v 0.419077 0.015420 0.000000
v 0.419077 -0.000000 0.015418
v 0.250062 0.015420 0.000000
v 0.250062 -0.000000 0.015418
v 0.419077 -0.015420 0.000000
v 0.250062 -0.015420 0.000000
v 0.419077 -0.000000 -0.015418
v 0.250062 -0.000000 -0.015418
v 0.136422 0.020345 -0.004242
v 0.136422 0.005345 -0.019242
v 0.000000 0.015000 -0.030000
v 0.000000 0.030000 -0.015000
v 0.100000 0.007414 -0.021725
v 0.100000 0.022414 -0.006725
v 0.070000 0.025173 -0.010173
v 0.070000 0.010173 -0.025173
v 0.419077 0.020345 -0.004242
v 0.419077 0.005345 -0.019242
v 0.136422 -0.020345 0.004242
v 0.136422 -0.005346 0.019242
v -0.000000 -0.015000 0.030000
v -0.000000 -0.030000 0.015000
v 0.100000 -0.007414 0.021725
v 0.100000 -0.022414 0.006725
v 0.070000 -0.025173 0.010173
v 0.070000 -0.010173 0.025173
v 0.419077 -0.020346 0.004242
v 0.419077 -0.005346 0.019242
v 0.136422 -0.020345 -0.004242
v 0.136422 -0.005346 -0.019242
v -0.000000 -0.015000 -0.030000
v -0.000000 -0.030000 -0.015000
v 0.100000 -0.007414 -0.021725
v 0.100000 -0.022414 -0.006725
v 0.070000 -0.025173 -0.010173
v 0.070000 -0.010173 -0.025173
v 0.419077 -0.020346 -0.004242
v 0.419077 -0.005346 -0.019242
vn -0.0000 -0.7071 0.7072
vn -0.0000 -0.7071 -0.7072
vn 1.0000 0.0000 0.0000
vn 0.0000 0.7071 -0.7072
vn 0.0000 0.7071 0.7072
vn 0.0000 1.0000 0.0000
vn 0.0000 0.0000 1.0000
vn -0.0000 -1.0000 0.0000
vn 0.0000 0.0000 -1.0000
vn 0.0000 0.7071 -0.7071
vn 0.0000 0.7071 0.7071
vn -0.0000 -0.7071 0.7071
vn -0.0000 -0.7071 -0.7071
vn 0.0680 0.0000 -0.9977
vn 0.1142 0.0000 -0.9935
vn 0.0688 0.0000 -0.9976
vn 0.0567 0.9984 0.0000
vn 0.0916 0.9958 0.0000
vn 0.0688 0.9976 0.0000
vn 0.0688 0.0000 0.9976
vn 0.1142 0.0000 0.9935
vn 0.0680 0.0000 0.9977
vn 0.0688 -0.9976 0.0000
vn 0.0916 -0.9958 0.0000
vn 0.0567 -0.9984 0.0000
vn 0.0971 -0.7038 0.7038
vn 0.1447 -0.6997 0.6997
vn 0.0880 -0.7044 0.7044
vn 0.0971 -0.7038 -0.7038
vn 0.1447 -0.6997 -0.6997
vn 0.0880 -0.7044 -0.7044
vn 0.0880 0.7044 -0.7044
vn 0.1447 0.6997 -0.6997
vn 0.0971 0.7038 -0.7038
vn 0.0971 0.7038 0.7038
vn 0.1447 0.6997 0.6997
vn 0.0880 0.7044 0.7044
vn -1.0000 0.0000 0.0000
usemtl None
s off
f 13//1 18//1 17//1 11//1
f 14//2 13//2 11//2 12//2
f 13//3 14//3 16//3 18//3
f 15//4 16//4 14//4 12//4
f 15//5 17//5 18//5 16//5
f 38//3 12//3 10//3
f 12//3 38//3 37//3 15//3
f 47//3 15//3 37//3
f 15//3 47//3 48//3 17//3
f 17//3 48//3 28//3
f 17//3 28//3 27//3 11//3
f 11//3 27//3 9//3
f 9//3 10//3 12//3 11//3
f 9//6 27//6 19//6 1//6
f 2//7 30//7 38//7 10//7
f 37//8 29//8 39//8 47//8
f 20//9 28//9 48//9 40//9
f 19//10 27//10 28//10 20//10
f 1//11 2//11 10//11 9//11
f 29//12 37//12 38//12 30//12
f 39//13 40//13 48//13 47//13
f 23//14 20//14 40//14 43//14
f 26//15 23//15 43//15 46//15
f 21//16 26//16 46//16 41//16
f 1//17 19//17 24//17 6//17
f 6//18 24//18 25//18 7//18
f 7//19 25//19 22//19 4//19
f 3//20 31//20 36//20 8//20
f 8//21 36//21 33//21 5//21
f 5//22 33//22 30//22 2//22
f 35//23 32//23 42//23 45//23
f 34//24 35//24 45//24 44//24
f 29//25 34//25 44//25 39//25
f 31//26 32//26 35//26 36//26
f 35//27 34//27 33//27 36//27
f 30//28 33//28 34//28 29//28
f 41//29 46//29 45//29 42//29
f 45//30 46//30 43//30 44//30
f 40//31 39//31 44//31 43//31
f 20//32 23//32 24//32 19//32
f 25//33 24//33 23//33 26//33
f 21//34 22//34 25//34 26//34
f 3//35 8//35 7//35 4//35
f 7//36 8//36 5//36 6//36
f 2//37 1//37 6//37 5//37
f 3//38 4//38 22//38 21//38 41//38 42//38 32//38 31//38
