# Blender v2.77 (sub 0) OBJ File: 'battleship_turret.blend'
# www.blender.org
mtllib battleship_turret.mtl
o Cube.001_Cube
v -0.402971 0.179268 -0.064788
v -0.290393 0.207848 -0.440830
v -0.377820 0.179268 0.339127
v -0.483827 0.179268 -0.322950
v -0.445974 0.000033 -0.489588
v -0.399929 0.179268 -0.440830
v -0.561920 0.000033 -0.371708
v -0.435464 0.000033 0.550228
v -0.163937 0.259201 0.339127
v -0.290393 0.259201 -0.322950
v -0.759292 0.179268 -0.064788
v -0.298447 0.224723 -0.064788
v -0.759292 0.224723 -0.064788
v -0.402971 0.179268 -0.008317
v -0.759292 0.179268 -0.008317
v -0.298447 0.224723 -0.008317
v -0.759292 0.224723 -0.008317
v 0.402971 0.179268 -0.064788
v 0.290393 0.207848 -0.440830
v 0.377820 0.179268 0.339127
v 0.483827 0.179268 -0.322950
v 0.445974 0.000033 -0.489588
v 0.399929 0.179268 -0.440830
v 0.561920 0.000033 -0.371708
v 0.435464 0.000033 0.550228
v 0.163937 0.259201 0.339127
v 0.290393 0.259201 -0.322950
v 0.759292 0.179268 -0.064788
v 0.298447 0.224723 -0.064788
v 0.759292 0.224723 -0.064788
v 0.402971 0.179268 -0.008317
v 0.759292 0.179268 -0.008317
v 0.298447 0.224723 -0.008317
v 0.759292 0.224723 -0.008317
vn -0.9055 0.4030 0.1329
vn -0.2868 0.7675 0.5733
vn -0.3495 0.9353 0.0560
vn -0.3809 0.9218 0.0728
vn 0.0000 1.0000 0.0000
vn 0.0000 0.0000 -1.0000
vn -1.0000 0.0000 0.0000
vn 0.0000 0.0000 1.0000
vn 0.0000 -1.0000 0.0000
vn -0.7648 0.3446 -0.5443
vn -0.6373 0.4482 -0.6269
vn -0.0728 0.2792 -0.9575
vn -0.3685 0.8918 -0.2623
vn -0.2326 0.8916 -0.3884
vn 0.9055 0.4030 0.1329
vn 0.2868 0.7675 0.5733
vn 0.3495 0.9353 0.0560
vn 0.3809 0.9218 0.0728
vn 1.0000 0.0000 0.0000
vn 0.7648 0.3446 -0.5443
vn 0.6373 0.4482 -0.6269
vn 0.0728 0.2792 -0.9575
vn 0.3685 0.8918 -0.2623
vn 0.2326 0.8916 -0.3884
vn 0.0000 0.2284 -0.9736
vn 0.0000 0.9168 -0.3994
vn 0.0000 0.6315 0.7753
usemtl None
s off
f 7//1 8//1 3//1 4//1
f 3//2 8//2 9//2
f 3//3 9//3 4//3
f 4//4 9//4 10//4
f 16//5 12//5 13//5 17//5
f 13//6 12//6 1//6 11//6
f 17//7 13//7 11//7 15//7
f 17//8 15//8 14//8 16//8
f 11//9 1//9 14//9 15//9
f 4//10 6//10 5//10
f 5//11 7//11 4//11
f 6//12 2//12 5//12
f 10//13 6//13 4//13
f 2//14 6//14 10//14
f 24//15 21//15 20//15 25//15
f 20//16 26//16 25//16
f 20//17 21//17 26//17
f 21//18 27//18 26//18
f 33//5 34//5 30//5 29//5
f 30//6 28//6 18//6 29//6
f 34//19 32//19 28//19 30//19
f 34//8 33//8 31//8 32//8
f 28//9 32//9 31//9 18//9
f 21//20 22//20 23//20
f 22//21 21//21 24//21
f 23//22 22//22 19//22
f 27//23 21//23 23//23
f 19//24 27//24 23//24
f 2//25 19//25 22//25 5//25
f 2//26 10//26 27//26 19//26
f 9//5 26//5 27//5 10//5
f 8//27 25//27 26//27 9//27
f 7//9 24//9 25//9 8//9
f 5//9 22//9 24//9 7//9
l 4 1
l 21 18
